<svg width="30" height="20" viewBox="0 0 30 20" fill="none" xmlns="http://www.w3.org/2000/svg">
<path d="M17.9133 19.4619C17.5281 19.1031 17.3432 18.6697 17.3586 18.1614C17.3753 17.6532 17.5762 17.2197 17.9615 16.861L23.4029 11.7937H1.92616C1.38042 11.7937 0.922633 11.6215 0.552809 11.2771C0.18427 10.9339 0 10.5082 0 10C0 9.49178 0.18427 9.06547 0.552809 8.72108C0.922633 8.37788 1.38042 8.20628 1.92616 8.20628H23.4029L17.9133 3.09417C17.5281 2.73542 17.3355 2.30912 17.3355 1.81525C17.3355 1.32257 17.5281 0.89686 17.9133 0.538116C18.2986 0.179372 18.7563 0 19.2867 0C19.8157 0 20.2729 0.179372 20.6581 0.538116L29.4703 8.74439C29.6629 8.92377 29.7997 9.11809 29.8806 9.32735C29.9602 9.53662 30 9.76084 30 10C30 10.2392 29.9602 10.4634 29.8806 10.6726C29.7997 10.8819 29.6629 11.0762 29.4703 11.2556L20.61 19.5067C20.2568 19.8356 19.8157 20 19.2867 20C18.7563 20 18.2986 19.8206 17.9133 19.4619Z" fill="black"/>
</svg>
